# xmcd
#
# Track frame offsets:
#	150
#	18419
#	34417
#	53226
#	69729
#	84480
#	101697
#	118698
#	134720
#	150185
#	166545
#	183177
#
# Disc length: 2708 seconds
#
# Revision: 0
# Processed by: cddbd v1.5.1PL0 Copyright (c) Steve Scherf et al.
# Submitted via: EasyCDDAExtractor 5.0.4.1
#
DISCID=970a920c
DTITLE=Despoina Filipou - Mou Ftaine Ta Astra
DYEAR=1900
DGENRE=
TTITLE0=Olokaytoma
TTITLE1=Pesta
TTITLE2=Mou Ftaine Ta Astra
TTITLE3=To Teleutaio Fili
TTITLE4=To Proto Vima
TTITLE5=St'Afirimena
TTITLE6=Poia Einai Auti
TTITLE7=Isos
TTITLE8=Ena S'Agapo Fotia
TTITLE9=Ego Tha Pao Ekei
TTITLE10=Lypame Poly
TTITLE11=Olokaytoma(rmx)
EXTD=
EXTT0=
EXTT1=
EXTT2=
EXTT3=
EXTT4=
EXTT5=
EXTT6=
EXTT7=
EXTT8=
EXTT9=
EXTT10=
EXTT11=
PLAYORDER=
